<svg width="288" height="199" viewBox="0 0 288 199" fill="none" xmlns="http://www.w3.org/2000/svg">
<g opacity="0.345889">
<path fill-rule="evenodd" clip-rule="evenodd" d="M224.976 60.739C221.695 33.5913 45.664 -18.8068 12.9845 6.90705C-19.695 32.6209 11.7223 80.879 80.2065 93.2367C148.691 105.594 228.257 87.8868 224.976 60.739Z" fill="#F2F2F2"/>
<path fill-rule="evenodd" clip-rule="evenodd" d="M73.8856 78.3784C76.9206 55.3153 239.763 10.8012 269.994 32.6461C300.225 54.491 292.573 100.439 229.22 110.937C165.867 121.436 70.8505 101.442 73.8856 78.3784Z" fill="#DDE3E9"/>
</g>
<path d="M166 66.5004L170.5 63.3504L166.69 53.3504C166.5 52.8504 166 53.0322 166 53.0322C166 53.0322 162.151 54.2632 161.5 54.5C160.849 54.7368 161 55.5 161 55.5L165.249 66.1811C165.249 66.1811 165.5 66.8504 166 66.5004Z" fill="#333333"/>
<path fill-rule="evenodd" clip-rule="evenodd" d="M216.547 54.9077C213.87 56.511 211.24 57.2856 210.006 56.9694C206.91 56.1764 206.626 44.9223 209.021 40.4856C211.416 36.0489 223.729 34.1151 224.35 42.9056C224.565 45.9566 223.276 48.6793 221.372 50.901L224.787 66.7195H214.867L216.547 54.9077Z" fill="#B28B67"/>
<path fill-rule="evenodd" clip-rule="evenodd" d="M222.134 52.8798C223.379 47.3752 226.926 43.6228 226.384 41.1624C225.842 38.7021 223.497 38.1024 223.497 38.1024C223.497 38.1024 222.283 33.2246 215.67 33.953C209.057 34.6813 205.021 37.4105 206.764 43.416C208.367 43.416 210.301 42.8401 212.975 43.8267C214.248 44.2963 214.796 46.7391 214.796 46.7391H216.005C216.005 46.7391 217.765 43.8402 219.475 44.6085C221.185 45.3769 220.253 48.3413 220.253 48.3413L220.848 52.8798H222.134Z" fill="#191847"/>
<path fill-rule="evenodd" clip-rule="evenodd" d="M243.093 118.065C251.93 118.065 259.093 125.229 259.093 134.065V153C259.093 161.837 251.93 169 243.093 169H214.333C205.497 169 198.333 161.837 198.333 153V134.065C198.333 125.229 205.497 118.065 214.333 118.065H243.093ZM243.52 129.567C245.729 129.567 247.52 131.357 247.52 133.567V153.499C247.52 155.708 245.729 157.499 243.52 157.499H213.907C211.698 157.499 209.907 155.708 209.907 153.499V133.567C209.907 131.357 211.698 129.567 213.907 129.567H243.52Z" fill="#C5CFD6"/>
<path fill-rule="evenodd" clip-rule="evenodd" d="M247.097 156.335C247.097 163.512 247.761 169.329 256.678 169.329C265.594 169.329 266.258 163.512 266.258 156.335" fill="#F2F2F2"/>
<path fill-rule="evenodd" clip-rule="evenodd" d="M259.33 151.858C259.003 152.34 258.712 152.831 258.455 153.33C258.446 152.303 258.512 151.268 258.694 150.219C259.005 148.422 259.48 146.635 259.926 144.851C260.247 143.568 260.227 141.265 261.444 140.243C261.778 140.022 261.859 140.455 261.859 140.643C261.863 140.683 261.858 139.876 261.534 140.016C259.607 140.865 258.983 143.531 258.367 144.866C257.467 146.815 256.702 148.807 256.386 150.834C256.307 151.346 256.263 151.859 256.253 152.37C256.188 152.233 256.126 152.095 256.058 151.959C254.947 149.736 253.447 147.567 251.575 145.567C251.115 145.075 245.324 140.219 244.871 140.962C244.915 141.07 245.009 141.16 245.152 141.231C245.16 141.239 245.16 141.235 245.155 141.223C245.496 141.691 246.463 142.414 246.764 142.825C247.522 143.857 248.111 144.953 248.71 146.028C249.975 148.3 251.148 150.595 252.285 152.895C252.55 153.431 252.826 153.963 253.108 154.494C250.205 150.924 246.332 147.683 241 145.828C242.821 146.618 244.015 148.104 245.245 149.241C246.728 150.613 248.29 151.949 249.776 153.32C251.529 154.937 253.591 156.639 255.277 158.429C256.91 161.352 258.497 164.278 259.477 167.35C259.075 166.288 259.445 164.822 259.376 163.707C259.322 162.821 259.2 161.941 259.034 161.063C259.24 161.459 259.417 161.856 259.498 162.224C259.424 161.606 259.34 160.992 259.249 160.381C259.482 159.809 259.711 159.275 259.866 158.835C260.658 156.579 261.602 154.362 262.888 152.201C264.077 150.202 265.442 148.229 266.928 146.316C267.622 145.424 268.325 144.535 269.024 143.645C269.481 143.062 269.916 142.129 270.553 141.571C266.437 144.778 261.941 148.009 259.33 151.858Z" fill="#F2F2F2"/>
<path fill-rule="evenodd" clip-rule="evenodd" d="M157.348 166.946C165.497 157.057 171.011 149.725 173.89 144.951C178.819 136.777 182.853 129.504 184.126 126.726C187.162 120.101 177.137 116.998 174.868 120.089C171.434 124.766 164.1 139.484 152.867 164.242L157.348 166.946Z" fill="#B28B67"/>
<path fill-rule="evenodd" clip-rule="evenodd" d="M174.047 164.071L189.213 126.131C192.457 119.215 176.792 114.669 174.408 117.888C168.996 125.195 156.132 154.021 154.52 156.198L174.047 164.071Z" fill="#2F3676"/>
<path fill-rule="evenodd" clip-rule="evenodd" d="M214.44 156.462C211.485 152.18 200.74 137.771 194.887 131.81C193.205 130.097 191.564 128.452 190.011 126.92C185.398 122.366 176.21 130.021 180.815 134.169C192.284 144.5 209.018 158.446 210.416 159.69C212.375 161.432 216.296 159.154 214.44 156.462Z" fill="#B28B67"/>
<path fill-rule="evenodd" clip-rule="evenodd" d="M211.724 155.677C212.499 154.807 213.828 154.557 214.674 155.359C215.105 155.769 215.504 156.198 215.702 156.541C216.254 157.497 216.992 159.518 216.992 159.518C215.872 160.165 196.854 171.144 196.854 171.144C196.854 171.144 194.585 169.027 196.158 167.846C197.731 166.664 198.754 165.853 198.754 165.853L205.375 156.799C205.706 156.347 206.344 156.255 206.79 156.595L207.748 157.329C207.748 157.329 209.732 157.148 210.711 156.583C211.03 156.399 211.387 156.056 211.724 155.677Z" fill="#E4E4E4"/>
<path fill-rule="evenodd" clip-rule="evenodd" d="M158.526 165.469C159.634 165.101 160.913 165.55 161.244 166.67C161.414 167.245 161.547 167.822 161.547 168.222C161.547 169.333 161.174 171.465 161.174 171.465C159.877 171.465 137.861 171.465 137.861 171.465C137.861 171.465 136.953 168.479 138.911 168.241C140.868 168.003 142.163 167.811 142.163 167.811L152.451 163.253C152.964 163.026 153.565 163.266 153.78 163.784L154.246 164.908C154.246 164.908 156.058 165.749 157.192 165.749C157.561 165.749 158.044 165.63 158.526 165.469Z" fill="#E4E4E4"/>
<path fill-rule="evenodd" clip-rule="evenodd" d="M194.67 128.026C194.67 128.026 213.578 124.965 220 123.84C232.203 121.701 235.761 115.176 233.657 100.937L211.174 100.937C206.711 102.218 173.877 116.78 173.877 116.78C169.939 118.723 170.673 124.452 171.392 126.339C171.436 126.454 191.31 160.256 191.31 160.256L209.702 148.612L194.636 129.398C194.636 129.398 194.039 128.204 194.67 128.026Z" fill="#5C63AB"/>
<path fill-rule="evenodd" clip-rule="evenodd" d="M175.588 59.8119L191.231 63.5229L187.692 70.2948L175.326 63.962C169.727 63.9583 167.059 63.5631 167.32 62.7764C167.541 62.1131 168.151 61.9664 168.712 61.8312C169.149 61.726 169.558 61.6277 169.73 61.2978C170.124 60.5443 170.132 59.6457 168.5 58L167.5 55.5C170.103 56.3827 172.589 57.7475 175.588 59.8119ZM181.81 100.821L194.187 90.5556L197.463 97.4592L184.966 103.528C181.593 107.999 179.672 109.893 179.202 109.211C178.805 108.635 179.055 108.06 179.285 107.53C179.464 107.117 179.631 106.732 179.471 106.395C179.107 105.627 176.678 105.853 174.382 106.167C172.087 106.48 172.698 105.414 173.224 104.874C175.495 103.326 178.357 101.975 181.81 100.821Z" fill="#FFB2B4"/>
<path fill-rule="evenodd" clip-rule="evenodd" d="M212.773 63.7791C206.502 77.335 196.908 88.0084 182.757 99.3499L188.72 105.328C204.849 98.2267 213.333 94.0154 216.876 81.3482C217.765 78.169 217.929 68.1915 218.265 62.9272L212.773 63.7791Z" fill="#E87613"/>
<path fill-rule="evenodd" clip-rule="evenodd" d="M234.757 107.827C234.757 107.827 213.26 107.827 203.132 107.827C201.687 107.827 201.959 105.753 202.168 104.707C204.579 92.6304 213.99 79.6124 213.99 62.4215L223.112 61C230.657 73.0594 233.267 87.907 234.757 107.827Z" fill="#DDE3E9"/>
<path fill-rule="evenodd" clip-rule="evenodd" d="M214.133 79.4562C210.489 100.673 211.723 117.792 222.49 117.158L239.14 116.178C240.738 98.2426 232.336 74.0006 225.16 61.9462C224.886 61.4858 224.309 60.6216 223.076 60.6942L218.237 60.9792C218.236 60.9857 218.234 60.9923 218.232 60.9988C216.777 61.0965 215.177 61.2442 213.444 61.4041C204.523 62.2274 192.083 63.3755 177.794 59.6972L176.627 68.0604C189.765 75.4594 202.955 81.0137 214.133 79.4562Z" fill="#FF9B21"/>
<path d="M11 89V28.4731L46.2995 12V72.5269L11 89Z" fill="#F9BD48" stroke="black"/>
<path d="M13.7299 81.0929V33.2738L16.1773 29.0379L41.1223 18.8716L43.5697 20.0012V68.0086L41.1223 71.3973L16.1773 82.599L13.7299 81.0929Z" fill="#ECECEC" stroke="black"/>
<mask id="mask0" mask-type="alpha" maskUnits="userSpaceOnUse" x="13" y="18" width="31" height="65">
<path d="M13.7299 81.0929V33.2738L16.1773 29.0379L41.1223 18.8716L43.5697 20.0012V68.0086L41.1223 71.3973L16.1773 82.599L13.7299 81.0929Z" fill="#ECECEC"/>
</mask>
<g mask="url(#mask0)">
<path fill-rule="evenodd" clip-rule="evenodd" d="M15.2732 43.0577C15.5898 42.8514 16.0808 42.9829 16.3995 43.1047C16.5223 43.1516 16.8361 43.3018 17.0688 43.4708C17.038 43.3537 17.0106 43.2355 16.9866 43.1163C16.8882 42.6264 16.8204 42.1273 16.7878 41.631C16.7793 41.5015 16.7903 41.3569 16.8015 41.2104C16.8053 41.1607 16.8091 41.1109 16.8122 41.0613C16.7995 41.0496 16.7909 41.0335 16.7873 41.0116C16.7859 41.0206 16.7852 41.0279 16.7846 41.0335C16.7836 41.0424 16.7832 41.0469 16.7815 41.0474C16.7798 41.0479 16.7769 41.044 16.7709 41.0363C16.7687 41.0333 16.7659 41.0297 16.7627 41.0256C16.5272 40.7252 16.3294 40.3868 16.3022 40.0147C16.2792 39.6992 16.5832 39.1022 17.0141 39.5155C17.2069 39.7 17.1569 40.9964 16.8673 41.0758C16.9447 41.5054 17.0419 41.9342 17.1637 42.3576C17.182 42.3548 17.2006 42.3546 17.219 42.3567C17.2173 42.2514 17.2171 42.1366 17.2222 42.0971C17.2656 41.7569 17.5988 41.0661 18.1293 41.2002C18.5369 41.3033 18.287 41.7276 18.1483 41.9133C17.925 42.2122 17.6724 42.3417 17.3525 42.4972C17.3461 42.5614 17.2975 42.5988 17.2402 42.6109C17.4544 43.2946 17.7358 43.9615 18.1041 44.5914L18.1139 44.5514C18.1606 44.3602 18.2152 44.1372 18.2497 44.0904C18.4302 43.8454 18.8298 43.5461 19.1983 43.6911C19.9722 43.996 19.1322 44.8724 18.4733 44.9677C18.4459 45 18.4169 45.026 18.3861 45.0409C18.5141 45.231 18.6509 45.4172 18.7973 45.5986C19.0169 45.8714 19.2529 46.1434 19.5002 46.4137C19.5079 46.2022 19.6058 45.7309 19.6336 45.6803C19.8025 45.3727 20.2895 45.0562 20.6845 45.2747C21.1288 45.5211 20.726 45.9866 20.4725 46.1972C20.3687 46.2836 19.8549 46.6001 19.6737 46.6015C20.2713 47.2391 20.931 47.8658 21.6018 48.4697C21.5462 48.1993 21.4736 47.4547 21.4817 47.3721C21.5234 46.9455 21.852 46.2632 22.4995 46.4295C23.1277 46.5905 22.8498 47.2993 22.6348 47.6372C22.5045 47.8417 22.3244 48.0495 22.1072 48.1921C22.0681 48.2178 22.017 48.2387 21.9659 48.2597L21.9659 48.2597C21.9044 48.2849 21.843 48.3101 21.8028 48.3435C21.7671 48.3732 21.7561 48.4074 21.7452 48.4412C21.7337 48.477 21.7223 48.5124 21.6819 48.542C22.0444 48.867 22.4094 49.1852 22.7692 49.4946C22.939 49.6406 23.1118 49.7838 23.2864 49.9252C23.3819 49.8914 23.518 49.9359 23.511 50.0512C23.5099 50.068 23.5054 50.0825 23.4993 50.0957C23.6315 50.2007 23.7647 50.3049 23.8988 50.408C23.8958 50.378 23.8967 50.3356 23.9028 50.2772C23.8062 50.3944 23.8103 50.2236 23.8133 50.0935L23.8133 50.0935C23.8144 50.0475 23.8154 50.0066 23.8118 49.9852C23.7976 49.9016 23.7792 49.8188 23.7609 49.7361L23.7609 49.7361C23.7217 49.5594 23.6826 49.3833 23.6846 49.201C23.6888 48.814 23.9761 48.1654 24.5806 48.3958C25.1364 48.6073 24.9342 49.1808 24.7245 49.5404C24.5918 49.7679 24.4101 49.9711 24.2203 50.1656C24.1864 50.2003 24.1489 50.2473 24.1117 50.2939C24.0565 50.363 24.002 50.431 23.9618 50.4564C24.4779 50.8511 25.0061 51.2342 25.5344 51.6173L25.5344 51.6173L25.5346 51.6175C25.7712 51.789 26.0078 51.9606 26.2433 52.1332C26.2535 52.0953 26.262 52.0578 26.2693 52.0226C26.2546 52.0368 26.2345 52.0434 26.2088 52.0421C26.2019 52.0131 26.192 51.9745 26.1801 51.9281C26.0346 51.3622 25.5916 49.6384 26.7913 49.9725C27.6703 50.218 27.0498 51.7189 26.3942 52.244C26.7921 52.5371 27.1861 52.834 27.571 53.1398C27.8495 53.361 28.1197 53.5899 28.3797 53.8263C28.2451 53.5201 28.1184 53.1238 28.2016 52.8084C28.3227 52.3493 28.8902 51.9159 29.4444 52.1771C30.1351 52.5042 29.6037 52.9508 29.1054 53.3696C28.8509 53.5835 28.6051 53.7901 28.535 53.9698C29.3613 54.7454 30.0669 55.6071 30.5383 56.5886C31.051 57.6561 31.5269 59.0903 31.2637 60.2846C31.3123 59.7594 31.1044 59.1001 30.9585 58.6371C30.9386 58.574 30.9199 58.5146 30.9031 58.4597C30.6837 57.7415 30.3721 57.0428 29.9615 56.3888C29.3038 55.3413 28.435 54.4521 27.4319 53.6448C27.2035 53.7127 26.9554 53.8385 26.75 53.9426L26.75 53.9426C26.624 54.0065 26.514 54.0623 26.4344 54.0916C26.0506 54.2329 25.3137 54.4355 25.0692 53.9903C24.8288 53.5526 25.4425 53.3078 25.8227 53.2097C26.1903 53.115 26.5216 53.1265 26.8644 53.2041C26.3335 52.8023 25.7896 52.4133 25.2458 52.0243L25.2458 52.0243L24.9459 51.8096C24.8076 51.9063 24.655 52.0462 24.4929 52.1946C23.9784 52.6658 23.3689 53.2241 22.8246 52.768C22.0031 52.0797 23.5742 51.3801 24.2436 51.4347C24.3257 51.4414 24.4052 51.4562 24.4828 51.4763C23.8002 50.9817 23.1281 50.4769 22.4925 49.9367C22.3785 49.9544 22.1969 50.0977 21.9788 50.2698C21.4886 50.6565 20.8137 51.189 20.3054 50.7697C19.9384 50.4671 20.0641 49.9958 20.4188 49.7263C20.7749 49.4556 21.2911 49.4561 21.7299 49.5472C21.9196 49.5864 22.0946 49.6613 22.2577 49.7525L22.278 49.7535C21.6526 49.2162 21.0233 48.6669 20.4173 48.0988L20.385 48.1077C20.3483 48.146 20.287 48.16 20.2308 48.1516L20.1359 48.1795L20.1359 48.1795C19.6558 48.3209 19.0388 48.5027 18.5604 48.4243C18.2082 48.3666 17.8887 48.1222 18.1868 47.8214C18.4291 47.5767 19.0866 47.6118 19.4072 47.6698C19.5637 47.6981 19.734 47.7801 19.905 47.8624C19.9768 47.897 20.0487 47.9317 20.1197 47.9624C20.1382 47.9306 20.1703 47.9102 20.207 47.9004C19.6085 47.3296 19.0375 46.739 18.5195 46.1227C18.3627 46.1434 18.1889 46.2022 18.0095 46.2629C17.578 46.4088 17.1149 46.5653 16.7825 46.2281C16.2918 45.7302 17.2146 45.4395 17.6533 45.4868C17.8015 45.5028 17.9475 45.5386 18.0885 45.586C17.7116 45.0786 17.4238 44.5363 17.2216 43.9667L17.216 43.9693C17.2132 43.9706 17.2103 43.972 17.2068 43.9733C17.2098 43.9719 17.2125 43.9704 17.2152 43.969L17.2212 43.9658C17.2011 43.9088 17.1817 43.8515 17.1633 43.7941C17.129 43.7778 17.097 43.7658 17.0816 43.7609C17.281 43.8782 16.4401 43.9356 16.2826 43.9463C15.9344 43.9701 15.4681 43.9789 15.2126 43.7355C14.9981 43.531 15.0107 43.2288 15.2732 43.0577ZM31.3011 60.2862C31.2863 60.4593 31.2497 60.6177 31.1813 60.7484C31.2326 60.5996 31.2719 60.445 31.3011 60.2862Z" fill="#F2F2F2"/>
<g opacity="0.7">
<path fill-rule="evenodd" clip-rule="evenodd" d="M19.5392 52.2357C20.7855 52.1806 22.3267 52.8007 22.4597 53.9556C22.5562 54.7947 22.5263 55.6313 22.6758 56.4692C22.7953 57.1388 23.0481 57.7816 23.3928 58.3915C23.7243 58.9781 24.412 59.4773 24.5909 60.1039C24.7049 60.5032 24.641 61.0648 24.4838 61.4553C24.2927 61.9302 24.3943 61.8926 24.7752 62.2911C25.5217 63.0718 26.1938 63.8725 26.6691 64.805C27.3538 66.1482 27.8027 67.7182 27.5486 69.1884C27.5162 69.3752 27.4779 70.0452 27.1763 70.092C26.8395 70.1444 26.997 69.7612 27.015 69.6374C27.1296 68.8476 27.2314 68.1572 27.0932 67.3551C26.5598 64.2602 23.9554 62.2211 22.2596 59.5943C22.1664 59.4589 21.9695 59.1363 21.8327 58.9235C21.6167 58.5876 21.3995 57.9483 21.107 57.6992C20.5563 57.2299 21.0626 58.1734 21.1699 58.3535C21.3056 58.5813 21.4549 58.8234 21.594 59.0231C22.2302 59.9485 22.9404 60.9586 23.5975 61.9125C20.7556 62.4646 18.7541 59.5519 17.9914 57.637C17.3631 56.0593 16.6113 52.3707 19.5392 52.2357Z" fill="#69A1AC"/>
<path fill-rule="evenodd" clip-rule="evenodd" d="M36.2425 49.3059C34.1591 49.4468 32.8217 50.6187 32.1991 52.2579C31.8635 53.1413 31.8251 54.0487 31.6386 54.9565C31.3581 56.3223 30.7546 57.3573 29.575 58.3304C29.2097 58.6317 28.9405 58.9411 28.7491 59.2721C28.3692 59.6027 28.0384 59.9767 27.7955 60.4339C27.4851 61.0179 27.3973 61.7185 27.7556 62.3007C27.852 62.4573 28.0923 62.7714 28.3414 62.9142C27.4088 64.6075 26.896 66.4621 26.9538 68.3143C26.9887 69.4324 27.0527 70.5509 27.1274 71.6677C27.1475 71.9675 27.2621 72.4626 27.4341 71.9598C27.5916 71.4998 27.3941 70.7777 27.3759 70.2972C27.287 67.9564 27.211 65.828 28.3413 63.6409C28.4598 63.4117 28.5855 63.1843 28.7164 62.9587C28.724 62.9549 28.7312 62.9504 28.7384 62.9459C28.7434 62.9492 28.7479 62.9527 28.7529 62.9559C28.7613 62.9432 28.7727 62.9281 28.7861 62.9112C28.8236 62.8782 28.8564 62.8364 28.8876 62.7899C28.9878 62.6714 29.1013 62.5323 29.1019 62.4561C29.1019 62.4555 29.1015 62.4546 29.1015 62.454C29.8013 61.4802 30.6027 60.5601 31.4214 59.658C31.4152 59.6646 32.3093 58.6267 32.1711 59.2007C32.1044 59.4773 31.4468 60.004 31.1812 60.2969C30.5936 60.9487 29.9036 61.7746 29.3302 62.5731C29.2531 62.6109 29.144 62.7965 29.0652 62.9348C29.0217 63.0048 28.9811 63.0754 28.9411 63.1369C30.9728 63.7092 32.5532 62.5565 33.6309 61.2158C33.6322 61.2142 33.6333 61.2126 33.6346 61.211C33.9625 60.8406 34.2985 60.4727 34.7182 60.1799C35.4184 59.6912 36.1682 59.605 36.9938 59.3645C39.2452 58.7088 40.2024 56.2213 40.5064 54.3757C40.8494 52.2935 39.1716 49.1006 36.2425 49.3059Z" fill="#89C5CC"/>
<path fill-rule="evenodd" clip-rule="evenodd" d="M32.1272 43.4749C29.989 45.372 28.956 48.0034 28.138 50.4771C27.2245 53.24 26.6211 56.0456 26.5979 58.9182C26.5827 60.8055 26.5225 62.7046 26.6517 64.5897C26.6975 65.2592 26.7758 65.9299 26.9003 66.5922C26.9106 66.6466 27.1891 68.1254 27.4555 67.7808C27.6071 67.5848 27.1701 66.2468 27.137 66.0239C26.9513 64.7686 26.9081 63.5041 26.9172 62.2398C26.9321 60.1581 26.8601 58.087 27.1076 56.013C27.1445 55.7033 27.1737 55.3781 27.2599 55.0751C27.3515 54.7531 27.2349 54.8937 27.5333 54.7662C27.8232 54.6422 28.1815 54.6599 28.4823 54.5044C29.6757 53.8875 30.2861 52.303 30.7612 51.2634C31.3046 50.0745 31.6349 48.8067 31.8986 47.5555C32.0923 46.6363 32.2308 45.7226 32.3092 44.7915C32.3339 44.4981 32.3353 44.1912 32.403 43.9027C32.4212 43.8248 32.5127 43.6872 32.5093 43.6182C32.5023 43.4724 32.399 43.3866 32.3906 43.264C32.3011 43.3327 32.2132 43.403 32.1272 43.4749Z" fill="#89C5CC"/>
<path fill-rule="evenodd" clip-rule="evenodd" d="M20.4683 68.7513C20.4683 71.8887 23.4517 74.4321 27.132 74.4321C30.8122 74.4321 33.7956 71.8887 33.7956 68.7513" fill="#89C5CC"/>
<path fill-rule="evenodd" clip-rule="evenodd" d="M31.6986 63.7774C33.3478 63.6738 35.1896 64.808 35.9851 65.9884C36.6264 66.9401 36.5184 68.1898 36.1223 69.2009C35.857 69.8778 35.2781 70.8429 34.3127 70.8523C33.1049 70.864 33.0466 69.5914 33.0233 68.8474C32.9922 67.8583 32.8456 66.9966 31.9314 66.3224C31.8185 66.2392 31.7 66.1613 31.5816 66.0834C31.4765 66.0143 31.3714 65.9451 31.2702 65.8723C31.254 65.8607 31.2377 65.849 31.2214 65.8373C30.8981 65.6057 30.5586 65.3624 30.5173 64.9806C30.4573 64.4273 30.8237 64.3277 31.3831 64.4305C31.4012 64.4338 31.4502 64.4497 31.5169 64.4712C31.8025 64.5635 32.4121 64.7605 32.2968 64.525C32.2534 64.4363 32.0948 64.366 31.8946 64.3133C31.3767 64.2653 30.7589 64.2096 30.5813 64.2429C28.6647 64.6013 27.9186 66.8645 27.7204 68.3024C27.699 68.4576 27.6817 68.6134 27.6666 68.7693H27.3145C27.3389 68.3927 27.3712 68.0168 27.4451 67.6443C27.7275 66.22 28.6107 64.1281 30.5478 63.8969C30.6192 63.8883 30.8821 63.8869 31.2005 63.9028C31.3514 63.8309 31.5205 63.7874 31.6986 63.7774Z" fill="#69A1AC"/>
</g>
<path fill-rule="evenodd" clip-rule="evenodd" d="M37.7786 36.6764C37.5063 35.902 36.8669 35.2959 36.2031 34.7405C34.911 33.6594 34.2161 32.9909 33.7556 31.4094C33.4848 30.4793 33.2091 29.4937 32.3501 28.8189C31.7247 28.3275 30.6482 27.9146 29.8118 28.2665C28.525 28.9213 28.1794 30.265 28.3092 31.4682C28.47 32.9594 29.2871 33.879 30.8569 34.4282C31.7414 34.7376 32.3294 35.1458 32.8095 35.857C33.1936 36.4258 33.4175 37.138 33.9001 37.6536C34.6217 38.4243 35.5246 38.7669 36.6376 38.6389C35.5951 37.0038 34.3771 35.3533 32.9081 33.9767C32.7706 33.8383 31.9595 33.3085 32.1231 33.0726C32.3033 32.8129 33.1359 33.7885 33.13 33.7826C33.557 34.2004 33.952 34.6444 34.3399 35.0926C34.339 35.093 34.3378 35.0932 34.3367 35.0937C34.7361 35.5536 35.1324 36.0203 35.521 36.4929C35.6782 36.6928 35.8312 36.8952 35.9777 37.1027C36.1926 37.4072 36.5337 38.2715 36.8854 38.4587C36.9607 38.4987 37.0302 38.5211 37.0953 38.5303C37.3352 38.8653 37.5687 39.203 37.7908 39.5446C38.3707 40.4369 38.8685 41.379 39.097 42.3864C39.1636 42.6804 39.1165 43.7802 39.3519 43.9925C39.7823 44.3807 39.6562 43.6331 39.6305 43.4074C39.4167 41.5387 38.6297 39.9467 37.4871 38.3757C37.8382 37.9848 37.8888 36.9901 37.7786 36.6764Z" fill="#F2F2F2"/>
<path fill-rule="evenodd" clip-rule="evenodd" d="M23.0361 37.5793C23.4899 37.1235 24.5808 37.0461 25.2479 37.0766C26.0735 37.1144 26.9214 37.2857 27.7068 37.4929C29.0006 37.8341 30.2578 38.4568 31.3973 39.0594C31.5346 39.1321 33.2264 39.9994 33.0766 40.1516C32.9283 40.3024 31.2675 39.2722 30.8974 39.0946C30.1075 38.7156 29.3832 38.2673 28.5125 38.017C27.6111 37.7578 26.6577 37.6552 25.7098 37.6623C25.5881 37.6632 25.1913 37.5909 25.1827 37.7443C25.1743 37.8944 25.8309 37.8161 25.9467 37.817C26.425 37.8207 26.9062 37.8591 27.3776 37.9297C28.2609 38.0621 29.0913 38.3288 29.8479 38.7378C29.6368 39.1562 29.1307 39.3491 28.5999 39.2444C28.1411 39.1539 27.6939 38.9306 27.2446 38.8661C26.9352 38.8216 26.6254 38.8481 26.3254 38.9224C25.534 39.1185 25.0775 39.5202 24.2074 39.2407C23.5252 39.0217 22.3844 38.2348 23.0361 37.5793Z" fill="#F2F2F2"/>
<path fill-rule="evenodd" clip-rule="evenodd" d="M21.0847 30.2348C20.0771 30.1721 18.9519 30.8577 18.4658 31.5711C18.074 32.1463 18.14 32.9016 18.382 33.5127C18.5441 33.9218 18.8978 34.5051 19.4876 34.5108C20.2255 34.5179 20.2611 33.7487 20.2754 33.299C20.2944 32.7012 20.3839 32.1805 20.9425 31.773C21.0114 31.7227 21.0838 31.6756 21.1562 31.6285C21.2204 31.5867 21.2846 31.5449 21.3464 31.5009C21.3563 31.4939 21.3663 31.4868 21.3762 31.4798C21.5737 31.3398 21.7812 31.1927 21.8064 30.962C21.843 30.6275 21.6192 30.5674 21.2774 30.6295C21.2664 30.6315 21.2365 30.6411 21.1957 30.6541C21.0212 30.7099 20.6488 30.8289 20.7192 30.6866C20.7457 30.633 20.8426 30.5905 20.9649 30.5587C21.2814 30.5296 21.6588 30.496 21.7673 30.5161C22.9382 30.7327 23.3941 32.1006 23.5152 32.9697C23.5289 33.0681 23.5398 33.1668 23.5494 33.2657H23.764C23.749 33.0335 23.7294 32.8016 23.6834 32.5719C23.5108 31.7111 22.9712 30.4467 21.7878 30.307C21.7441 30.3018 21.5835 30.3009 21.389 30.3105C21.2968 30.2671 21.1935 30.2408 21.0847 30.2348Z" fill="#F2F2F2"/>
<path fill-rule="evenodd" clip-rule="evenodd" d="M29.3959 47.2514C32.2505 47.2514 33.2886 43.8289 34.9104 41.9507C36.0707 40.6069 38.051 41.0076 38.6372 39.1263C40.1112 34.3956 36.166 31.066 31.0194 31.066C25.8727 31.066 22.4025 33.9861 21.6532 38.3759C20.904 42.7656 24.2493 47.2514 29.3959 47.2514Z" fill="#191847"/>
<path fill-rule="evenodd" clip-rule="evenodd" d="M32.6267 46.6355C34.2441 47.6118 35.8332 48.0835 36.5792 47.8909C38.4498 47.4081 38.6217 40.5549 37.1744 37.8531C35.7271 35.1514 28.2866 33.9738 27.9115 39.3268C27.7814 41.1847 28.5603 42.8427 29.7112 44.1956L27.6476 53.8283H33.6419L32.6267 46.6355Z" fill="#B28B67"/>
<path fill-rule="evenodd" clip-rule="evenodd" d="M28.3012 35.5684C23.7097 40.0708 28.3187 44.8564 29.5816 44.8564C29.6631 44.2067 29.9117 43.5748 30.2761 42.9734C30.0826 42.7224 29.9679 42.4102 29.9679 42.0719C29.9679 41.243 30.6563 40.5711 31.5056 40.5711C31.7708 40.5711 32.0204 40.6367 32.2382 40.7521C34.079 39.1798 36.3877 38.0838 37.534 37.8683C39.5278 37.4934 32.8926 31.066 28.3012 35.5684Z" fill="#191847"/>
<path fill-rule="evenodd" clip-rule="evenodd" d="M25.6495 74.5894L35.0483 105.362L39.6013 131.532H43.1712L38.3602 74.5894H25.6495Z" fill="#997659"/>
<path fill-rule="evenodd" clip-rule="evenodd" d="M22.2871 74.5894C22.9255 91.4853 22.1742 100.2 22.0313 101.735C21.8885 103.271 19.932 113.224 15.3002 132.048L19.1042 130.739C26.4243 113.475 28.9187 104.503 29.7582 102.236C30.5978 99.9688 32.8276 90.7533 36.4476 74.5894H22.2871Z" fill="#B28B67"/>
<path fill-rule="evenodd" clip-rule="evenodd" d="M24.4007 74.5894L28.3969 90.2678H40.6029L38.7829 74.5894H24.4007Z" fill="#69A1AC"/>
<path fill-rule="evenodd" clip-rule="evenodd" d="M22.1528 74.5894C20.1804 80.5103 21.4035 90.2678 21.4035 90.2678H33.8593L37.2844 74.5894H22.1528Z" fill="#89C5CC"/>
<path fill-rule="evenodd" clip-rule="evenodd" d="M54.715 77.5304L47.6398 70.6179L45.2898 74.6901L52.6472 79.0343C54.4919 81.9446 55.5754 83.2021 55.8976 82.8068C56.1692 82.4734 56.0447 82.1081 55.93 81.7715C55.8407 81.5094 55.7573 81.2647 55.8718 81.0663C56.1333 80.6132 57.6105 80.8727 59.0017 81.179C60.393 81.4852 60.071 80.8008 59.7753 80.4436C58.4604 79.3809 56.7737 78.4098 54.715 77.5304ZM13.0109 87.5735C13.7428 86.0864 16.2354 71.5928 16.2354 71.5928L21.4548 71.6133C21.4548 71.6133 16.6207 87.2419 16.2354 88.1982C15.7349 89.4404 16.585 91.2453 17.1615 92.4691C17.2507 92.6584 17.3334 92.8338 17.4034 92.9911C16.6035 93.3496 16.2193 92.9163 15.8142 92.4595C15.3566 91.9436 14.8725 91.3976 13.7327 91.9287C13.2924 92.1338 12.8757 92.3764 12.4686 92.6134C11.0625 93.4319 9.77071 94.1839 8.01343 93.098C7.73484 92.9259 7.42955 92.2777 8.16717 91.7711C10.0049 90.5092 12.6531 88.3005 13.0109 87.5735Z" fill="#B28B67"/>
<path fill-rule="evenodd" clip-rule="evenodd" d="M31.0681 49.659L33.2278 49.288C36.9462 58.5906 43.4381 67.0431 52.7035 74.6457L45.7021 83.1644C36.4378 72.3394 30.7272 61.1709 31.0681 49.659Z" fill="#191847"/>
<path fill-rule="evenodd" clip-rule="evenodd" d="M21.6533 76.8406H40.8851C40.8851 76.8406 34.2017 60.5663 34.2017 49.1909L28.4004 48.3253C23.8412 55.6688 22.5536 64.7102 21.6533 76.8406Z" fill="#DDE3E9"/>
<path fill-rule="evenodd" clip-rule="evenodd" d="M12.9116 85.0951C15.0148 61.3313 28.273 48.3253 28.273 48.3253L28.2776 48.3294C28.2784 48.328 28.2791 48.3266 28.2799 48.3253H28.6586C29.3383 48.3487 30.7291 48.4097 30.7291 48.4097L32.1309 52.4217C32.3533 59.759 34.7287 81.9949 34.7287 81.9949H22.1403C22.1617 83.0144 22.2091 84.0483 22.2853 85.0951H12.9116Z" fill="#2F3676"/>
<path fill-rule="evenodd" clip-rule="evenodd" d="M22.1424 82.0935C22.0419 77.6537 22.4352 73.4849 23.0913 69.7123C23.4345 74.1889 24.1516 79.5755 25.6495 82.0935H22.1424Z" fill="black" fill-opacity="0.1"/>
<path fill-rule="evenodd" clip-rule="evenodd" d="M24.9279 74.3393L31.1443 71.4451V74.3393H24.9279Z" fill="white" fill-opacity="0.2"/>
</g>
</svg>
