<svg width="273" height="175" viewBox="0 0 273 175" fill="none" xmlns="http://www.w3.org/2000/svg">
<path fill-rule="evenodd" clip-rule="evenodd" d="M42.58 62.1685C36.8266 81.9455 111.811 104.956 178.986 104.244C246.162 103.531 281.045 71.5413 252.007 48.3804C222.97 25.2195 48.3334 42.3916 42.58 62.1685Z" fill="#F9F9F9"/>
<path fill-rule="evenodd" clip-rule="evenodd" d="M272.881 103.837C276.86 129.241 180.352 145.811 97.2852 134.247C14.2183 122.683 -23.8888 77.5252 15.7493 53.4633C55.3875 29.4014 268.901 78.4333 272.881 103.837Z" fill="#F2F2F2"/>
<path fill-rule="evenodd" clip-rule="evenodd" d="M87.3346 35.6738C89.8817 37.2131 92.3843 37.9568 93.559 37.6532C96.5048 36.8919 96.7757 26.0871 94.4964 21.8275C92.2171 17.5679 80.4996 15.7112 79.909 24.1509C79.704 27.08 80.9307 29.6941 82.7432 31.8271L79.4933 47.0141H88.9333L87.3346 35.6738Z" fill="#B28B67"/>
<path fill-rule="evenodd" clip-rule="evenodd" d="M91.5215 16.1616C90.2806 15.7857 88.4794 15.6582 87.7216 15.7445C88.1527 14.7184 88.3237 13.5752 88.1843 12.4621C88.0487 11.3805 87.5623 10.4595 87.1125 9.4945C86.9051 9.04969 86.6701 8.60729 86.3197 8.26706C85.9628 7.92043 85.511 7.69163 85.0373 7.58247C84.5524 7.47073 84.0455 7.48004 83.5599 7.58144C83.3451 7.62629 83.1524 7.72387 82.9417 7.77812C82.726 7.8337 82.6213 7.69954 82.4647 7.56471C82.0874 7.23984 81.5342 7.07947 81.0567 7.02207C80.5211 6.9577 79.9653 7.03798 79.4545 7.21293C78.9573 7.38324 78.4796 7.65981 78.1201 8.06271C77.9601 8.24206 77.8148 8.44619 77.7203 8.67157C77.6816 8.76406 77.6752 8.81885 77.5823 8.85273C77.4964 8.8841 77.3959 8.88501 77.3073 8.91486C76.4499 9.20336 75.717 9.86153 75.3178 10.7066C75.085 11.1996 74.9747 12.0676 75.0049 13.0405C75.0351 14.0134 75.9192 16.5519 76.7462 17.4778C77.4843 18.3043 78.5693 18.8497 79.6163 19.0885C78.9213 19.8778 78.4587 20.8641 78.1166 21.8672C77.745 22.9568 77.515 24.0889 77.4301 25.2425C77.3494 26.3385 77.3419 27.4976 77.6005 28.5702C77.8425 29.5732 78.3598 30.3961 79.2235 30.9182C79.6191 31.1573 80.0447 31.3369 80.4728 31.5011C80.8947 31.6629 81.3179 31.8202 81.7599 31.911C82.5963 32.0828 83.5601 32.0533 84.2044 31.3918C84.4366 31.1534 84.692 30.8537 84.8614 30.5624C84.9223 30.4576 84.9591 30.3891 84.885 30.2867C84.7964 30.164 84.653 30.0701 84.5391 29.9741C83.8896 29.4271 83.4876 28.6968 83.3862 27.8289C83.2834 26.9483 83.5214 25.8118 84.3831 25.4275C85.4467 24.9531 86.6181 25.4976 87.5635 26.0052C87.9653 24.5962 88.7902 23.3276 90.0836 22.6813C91.5145 21.9664 93.1565 21.8827 94.627 21.2692C95.0102 21.1094 95.4004 20.9279 95.6826 20.6022C95.8005 20.466 95.9388 20.2895 95.9858 20.1094C96.0477 19.8729 95.8942 19.6746 95.7756 19.4903C95.1468 18.5126 92.7623 16.5376 91.5215 16.1616Z" fill="#191847"/>
<path fill-rule="evenodd" clip-rule="evenodd" d="M74 93L85.801 133.531L91.5177 168H96L89.9594 93H74Z" fill="#997659"/>
<path fill-rule="evenodd" clip-rule="evenodd" d="M87.8729 161.151L97.8378 157.334C98.4795 142.905 101.695 83.3805 92.907 62L73.0235 74.2357C71.0853 94.7939 88.0878 146.752 87.8729 161.151Z" fill="#414783"/>
<path fill-rule="evenodd" clip-rule="evenodd" d="M77.1333 79.7465L56.7799 128.737L36.7757 170.155H41.4953L93.1316 79.7465H77.1333Z" fill="#997659"/>
<path fill-rule="evenodd" clip-rule="evenodd" d="M38.8184 168.28C37.702 167.922 36.4143 168.368 36.093 169.495C35.9451 170.014 35.8333 170.526 35.8333 170.887C35.8333 171.953 36.1878 174 36.1878 174C37.4221 174 58.3725 174 58.3725 174C58.3725 174 59.2373 171.134 57.3742 170.905C55.511 170.677 54.2787 170.492 54.2787 170.492L44.5389 166.139C44.0238 165.909 43.4205 166.15 43.2059 166.672L42.7809 167.705C42.7809 167.705 41.0561 168.512 39.9778 168.512C39.6544 168.512 39.24 168.416 38.8184 168.28Z" fill="#E4E4E4"/>
<path fill-rule="evenodd" clip-rule="evenodd" d="M38.5822 161.551L49.0693 163.523C57.1779 151.57 91.1127 102.561 94.8333 79.7465H71.4867C59.0616 96.2393 46.3113 149.401 38.5822 161.551Z" fill="#5C63AB"/>
<path fill-rule="evenodd" clip-rule="evenodd" d="M91.8531 168.009C90.6972 167.822 89.4925 168.454 89.3425 169.616C89.2736 170.149 89.2394 170.67 89.2931 171.026C89.4519 172.078 90.1072 174.043 90.1072 174.043C91.3276 173.859 112.043 170.731 112.043 170.731C112.043 170.731 112.472 167.775 110.595 167.828C108.719 167.881 107.473 167.883 107.473 167.883L97.1926 165.043C96.6496 164.893 96.0899 165.221 95.9553 165.768L95.689 166.851C95.689 166.851 94.1037 167.904 93.0375 168.065C92.7169 168.114 92.2914 168.08 91.8531 168.009Z" fill="#E4E4E4"/>
<path fill-rule="evenodd" clip-rule="evenodd" d="M126.786 62.6721L112.533 68.9476L117.084 74.7929L127.758 66.5876C133.09 65.6058 135.562 64.7623 135.176 64.0571C134.85 63.4626 134.244 63.429 133.686 63.3982C133.251 63.3741 132.845 63.3517 132.623 63.0669C132.117 62.4164 133.367 60.4072 134.634 58.5513C135.901 56.6954 134.714 56.7625 134.018 56.9844C131.693 58.2818 129.282 60.1776 126.786 62.6721ZM62.9733 72.2795L54.9133 70.676C49.4469 85.1215 46.1881 93.0375 45.1366 94.424C44.3655 95.4408 39.6104 98.0597 36.3918 99.4584C35.0999 100.02 35.3773 101.114 35.7562 101.465C38.1462 103.673 40.3681 102.899 42.7868 102.056C43.487 101.812 44.2037 101.563 44.9458 101.378C46.8664 100.9 47.4509 101.89 48.0032 102.826C48.4923 103.654 48.9561 104.44 50.2999 104.127C50.2388 103.862 50.1637 103.566 50.0826 103.246C49.5588 101.18 48.7863 98.132 49.9324 96.3612C50.5206 95.4524 54.8676 87.4252 62.9733 72.2795Z" fill="#B28B67"/>
<path fill-rule="evenodd" clip-rule="evenodd" d="M84.88 40.4408L88.2812 39.8558C95.6894 47.061 98.7125 64.3711 103.649 66.6624C108.317 68.8287 114.934 66.7324 122.799 63.9018L125.208 69.2975C118.062 77.0492 102.837 83.5982 96.6663 79.8595C86.8001 73.8821 84.5224 52.5327 84.88 40.4408Z" fill="#DB2721"/>
<path fill-rule="evenodd" clip-rule="evenodd" d="M70.0533 83.2958C70.0533 83.2958 90.5097 83.2958 100.148 83.2958C101.523 83.2958 101.264 81.3049 101.065 80.3002C98.7708 68.7057 89.8149 56.2073 89.8149 39.7028L81.1342 38.338C73.9542 49.916 71.4712 64.1708 70.0533 83.2958Z" fill="#DDE3E9"/>
<path fill-rule="evenodd" clip-rule="evenodd" d="M80.6733 38.338H80.5742C61.1037 50.3679 49.3367 69.016 45.2733 94.2823L51.5814 95.5211C55.76 90.6402 60.9167 82.6521 67.0517 71.5567C65.1695 78.2405 63.7953 85.0954 63.3667 91.5775H90.4564C95.7007 78.2894 84.0113 38.338 84.0113 38.338H82.141H80.6733Z" fill="#FF4133"/>
<path d="M119.148 10.5224C121.09 9.32583 123.134 8.24296 125.282 7.27382C127.477 6.31226 129.788 5.53933 132.215 4.95502C134.689 4.37828 137.295 4.04135 140.033 3.94423C142.825 3.80729 145.762 3.98504 148.843 4.47749C153.109 5.15934 156.877 6.36928 160.148 8.1073C163.426 9.79791 166.123 11.9304 168.239 14.5046C170.363 17.0315 171.846 19.9178 172.688 23.1634C173.578 26.4166 173.724 29.9154 173.125 33.6599C172.549 37.2622 171.528 40.3071 170.061 42.7948C168.649 45.2426 167.005 47.3131 165.131 49.0065C163.303 50.7074 161.352 52.121 159.276 53.2475C157.2 54.374 155.234 55.4209 153.378 56.388C151.522 57.3552 149.88 58.3565 148.45 59.3919C147.076 60.3875 146.129 61.5972 145.61 63.0211L142.207 72.9039L128.77 70.7561L129.26 59.0224C129.292 56.6942 129.891 54.7726 131.057 53.2576C132.23 51.6952 133.685 50.348 135.421 49.2159C137.165 48.0364 139.064 46.9545 141.117 45.9702C143.225 44.9461 145.202 43.8281 147.049 42.6164C148.95 41.3648 150.593 39.9019 151.979 38.2276C153.42 36.5135 154.345 34.3767 154.754 31.8171C155.254 28.6889 154.561 26.0262 152.676 23.8292C150.839 21.6397 148.143 20.2609 144.588 19.6926C141.981 19.276 139.732 19.2081 137.84 19.4889C135.995 19.7774 134.376 20.1749 132.982 20.6813C131.597 21.1403 130.408 21.5822 129.416 22.0071C128.425 22.4319 127.526 22.5799 126.721 22.4511C124.919 22.1632 123.694 21.1652 123.043 19.4571L119.148 10.5224ZM119.102 96.116C119.352 94.5519 119.871 93.128 120.66 91.8443C121.503 90.5209 122.526 89.4448 123.728 88.6161C124.937 87.74 126.275 87.1274 127.74 86.7784C129.261 86.3895 130.85 86.3276 132.509 86.5928C134.121 86.8504 135.588 87.4009 136.912 88.2443C138.243 89.0404 139.346 90.0432 140.222 91.2526C141.106 92.4146 141.719 93.7521 142.06 95.265C142.457 96.738 142.53 98.2566 142.28 99.8207C142.022 101.432 141.476 102.876 140.64 104.152C139.851 105.436 138.852 106.516 137.643 107.392C136.441 108.22 135.084 108.806 133.571 109.147C132.058 109.489 130.496 109.53 128.884 109.273C127.225 109.008 125.73 108.477 124.399 107.681C123.116 106.893 122.032 105.917 121.148 104.755C120.272 103.546 119.636 102.205 119.239 100.732C118.89 99.2661 118.845 97.7276 119.102 96.116Z" fill="#FF5044"/>
<path fill-rule="evenodd" clip-rule="evenodd" d="M137.322 72.123C139.199 64.6905 143.454 54.3421 150.5 53C161 51 173 39 170.5 25.5C168.109 12.5886 144.68 2.42124 120.771 14.2442L119.148 10.5224C121.09 9.32583 123.134 8.24295 125.282 7.27382C127.477 6.31226 129.788 5.53933 132.215 4.95502C134.689 4.37827 137.295 4.04135 140.033 3.94423C142.825 3.80729 145.762 3.98504 148.843 4.47749C153.109 5.15934 156.877 6.36927 160.148 8.10729C163.426 9.79791 166.123 11.9304 168.239 14.5046C170.363 17.0315 171.846 19.9178 172.688 23.1634C173.578 26.4166 173.724 29.9154 173.125 33.6599C172.549 37.2622 171.528 40.3071 170.061 42.7948C168.649 45.2426 167.005 47.3131 165.131 49.0065C163.303 50.7074 161.352 52.121 159.276 53.2475C157.2 54.374 155.234 55.4208 153.378 56.388C151.522 57.3552 149.88 58.3565 148.45 59.3919C147.076 60.3875 146.129 61.5972 145.61 63.0211L142.207 72.9039L137.322 72.123ZM141.301 93.0328C140.225 100.566 135.514 109.031 122.346 106.1C122.961 106.691 123.646 107.218 124.399 107.681C125.73 108.477 127.225 109.008 128.884 109.273C130.496 109.53 132.058 109.489 133.571 109.147C135.084 108.806 136.441 108.22 137.643 107.392C138.852 106.516 139.851 105.436 140.64 104.152C141.476 102.876 142.022 101.432 142.28 99.8207C142.53 98.2566 142.457 96.738 142.06 95.265C141.881 94.4728 141.628 93.7287 141.301 93.0328Z" fill="#C0382E"/>
<rect x="222" y="33" width="3" height="141" fill="#5C63AB"/>
<path fill-rule="evenodd" clip-rule="evenodd" d="M244.15 50.225L203.067 41L200 54.6598L241.082 63.8848L248.367 58.3464L244.15 50.225Z" fill="#414783"/>
<path fill-rule="evenodd" clip-rule="evenodd" d="M204.474 85.7987L246.451 82.5189L247.423 94.9575L205.446 98.2373L199.083 92.4772L204.474 85.7987Z" fill="#414783"/>
</svg>
